-
http:// www. Speed. Cd       
http:// www. Speed. Cd       the fast  and The Hottest Private Tracker on the net

Please Seed back to make the speed Faster!!!

and don't forget to visit      ...... www. Speed. Cd..........
-[align=center][IMG]http://img857.imageshack.us/img857/3712/ageofdragonsposter.jpg[/IMG]

** ** ** ** ** ** ** ** ** 

IMDB........ http://www.imdb.com/title/tt1594917/

** ** ** ** ** ** ** ** ** 

[b]PLOT[/b]

Herman Melville's classic novel Moby Dick, is recreated in a world where Captain Ahab and his crew search for a Great White Dragon. 

** ** ** ** ** ** ** ** ** 

[b]AVI Information[/b]

Complete name : Age.Of.The.Dragons.2011.480 BRRip Xvid AC3 - PRESTiGE.avi 
Format : AVI 
Format/Info : Audio Video Interleave 
Format profile : OpenDML 
Format settings : rec 
File size : 1.98 GiB 
Duration : 1h 34mn 
Overall bit rate : 2 991 Kbps 
Source: Age.Of.The.Dragons.2011.720p.BluRay.x264-7SinS
Encoder: Twisted

[b]Video Stream[/b]

ID : 0 
Format : MPEG-4 Visual 
Format profile : Advanced Simple@L5 
Format settings, BVOP : 2 
Format settings, QPel : No 
Format settings, GMC : No warppoints 
Format settings, Matrix : Default (MPEG) 
Codec ID : XVID 
Codec ID/Hint : XviD 
Duration : 1h 34mn 
Bit rate : 2 537 Kbps 
Width : 720 pixels 
Height : 304 pixels 
Display aspect ratio : 2.35:1 
Frame rate : 23.976 fps 
Color space : YUV 
Chroma subsampling : 4:2:0 
Bit depth : 8 bits 
Scan type : Progressive 
Compression mode : Lossy 
Bits/(Pixel*Frame) : 0.483 
Stream size : 1.68 GiB (85%) 
Writing library : XviD 1.2.1 (UTC 2008-12-04) 


[b]Audio Stream[/b]

ID : 1 
Format : AC-3 
Format/Info : Audio Coding 3 
Mode extension : CM (complete main) 
Codec ID : 2000 
Duration : 1h 34mn 
Bit rate mode : Constant 
Bit rate : 448 Kbps 
Channel(s) : 6 channels 
Channel positions : Front: L C R, Side: L R, LFE 
Sampling rate : 48.0 KHz 
Bit depth : 16 bits 
Compression mode : Lossy 
Stream size : 303 MiB (15%) 
Alignment : Aligned on interleaves 
Interleave, duration : 64 ms (1.53 video frames) 
Interleave, preload duration : 192 ms 
Title : T2_Audio - 5.1 channels 


** ** ** ** ** ** ** ** ** 

[b]Screens[/b]

[IMG]http://img844.imageshack.us/img844/6854/pic11s.png[/IMG]
[IMG]http://img217.imageshack.us/img217/903/pic12q.png[/IMG]
[IMG]http://img51.imageshack.us/img51/7238/pic13n.png[/IMG]
[IMG]http://img845.imageshack.us/img845/6884/pic14.png[/IMG]
[IMG]http://img43.imageshack.us/img43/3696/pic15bp.png[/IMG]
[IMG]http://img62.imageshack.us/img62/1096/pic16l.png[/IMG]
[IMG]http://img851.imageshack.us/img851/3350/pic17.png[/IMG]
[IMG]http://img263.imageshack.us/img263/4977/pic18t.png[/IMG]

** ** ** ** ** ** ** ** **

Note

PRESTiGE - IS LOOKING FOR?: CAMMER'S, AUDIO SUPPLIERS, SYNCER'S, RETAIL SUPPLIER'S, SILVER'S, SCREENER'S, LINE CAPPER'S

ENCODER'S - ANYTHING AT ALL EMAIL US AT..... prestige@twistedtorrents.com

** ** ** ** ** ** ** ** **

Greets Are Flying Out To:

[b]BmB,HiTM4N,BIGGUY,Demedic,DiLLoN,Imagine,CTFX,Jammo
Encoders Past And Present[/b]

** ** ** ** ** ** ** ** ** 

PRESTiGE is the level of respect at which one is regarded by others....RIzE Above Or Sink Below

[IMG]http://leetleech.org/images/83508160282003703104.png[/IMG][/align]